<svg width="456" height="320" viewBox="0 0 456 320" fill="none" xmlns="http://www.w3.org/2000/svg">
<path d="M250.75 319.25V228.25H319L228 114.5L137 228.25H205.25V319.25H250.75Z" fill="#0F97A6"/>
<path d="M114.25 319.25H159.75V273.75H114.25C76.6215 273.75 46 243.129 46 205.5C46 173.559 73.2772 142.801 106.811 136.909L120.029 134.588L124.397 121.894C140.39 75.2335 180.111 46.25 228 46.25C290.722 46.25 341.75 97.2783 341.75 160V182.75H364.5C389.593 182.75 410 203.157 410 228.25C410 253.343 389.593 273.75 364.5 273.75H296.25V319.25H364.5C414.687 319.25 455.5 278.437 455.5 228.25C455.465 207.857 448.598 188.064 435.996 172.031C423.394 155.998 405.783 144.65 385.976 139.798C376.034 61.4925 308.99 0.75 228 0.75C165.301 0.75 110.838 37.4002 85.9717 95.1625C37.1047 109.768 0.5 155.905 0.5 205.5C0.5 268.222 51.5283 319.25 114.25 319.25Z" fill="#0F97A6"/>
</svg>
